PathFileType	4	(X/Y/Z)	C:\Users\u0088756\Documents\PostDoc\Conferences\Amsterdam_2018\Resources\Resources\MoCap\subject01_walk1_m.trc
DataRate	CameraRate	NumFrames	NumMarkers	Units	OrigDataRate	OrigDataStartFrame	OrigNumFrames
60.000000	60.000000	8	41	m	60.000000	133	151
Frame#	Times		R.ASIS		L.ASIS		V.Sacral		R.Thigh.Upper		R.Thigh.Front		R.Thigh.Rear		L.Thigh.Upper		L.Thigh.Front		L.Thigh.Rear		R.Shank.Upper		R.Shank.Front		R.Shank.Rear		L.Shank.Upper		L.Shank.Front		L.Shank.Rear		R.Heel		R.Midfoot.Sup		R.Midfoot.Lat		R.Toe.Tip		L.Heel		L.Midfoot.Sup		L.Midfoot.Lat		L.Toe.Tip		Sternum		R.Acromium		L.Acromium		R.Bicep		L.Bicep		R.Elbow		L.Elbow		R.Wrist.Med		R.Wrist.Lat		L.Wrist.Med		L.Wrist.Lat		R.Toe.Lat		R.Toe.Med		L.Toe.Lat		L.Toe.Med		R.Temple		L.Temple		Top.Head
			X1	Y1	Z1	X2	Y2	Z2	X3	Y3	Z3	X4	Y4	Z4	X5	Y5	Z5	X6	Y6	Z6	X7	Y7	Z7	X8	Y8	Z8	X9	Y9	Z9	X10	Y10	Z10	X11	Y11	Z11	X12	Y12	Z12	X13	Y13	Z13	X14	Y14	Z14	X15	Y15	Z15	X16	Y16	Z16	X17	Y17	Z17	X18	Y18	Z18	X19	Y19	Z19	X20	Y20	Z20	X21	Y21	Z21	X22	Y22	Z22	X23	Y23	Z23	X24	Y24	Z24	X25	Y25	Z25	X26	Y26	Z26	X27	Y27	Z27	X28	Y28	Z28	X29	Y29	Z29	X30	Y30	Z30	X31	Y31	Z31	X32	Y32	Z32	X33	Y33	Z33	X34	Y34	Z34	X35	Y35	Z35	X36	Y36	Z36	X37	Y37	Z37	X38	Y38	Z38	X39	Y39	Z39	X40	Y40	Z40	X41	Y41	Z41

133	2.2	619.06	1081.1	174.39	619.88	1072.6	-85.475	421.07	1071.7	51.206	599.01	755.41	214.38	660.99	699.98	117.79	597.87	633.06	200.7	648.86	774.39	-151.4	755.52	768.04	-102.24	690.59	672.17	-146.85	533.1	459.21	183.61	608.16	420.03	128.42	541.27	371.97	186.96	666.84	493.4	-148.31	676.78	422.95	-96.167	623.14	472	-151.25	440.21	71.127	93.512	584.92	78.908	61.596	575.64	63.236	168.69	728.52	48.729	104.98	375.34	253.12	-46.809	507.61	148.78	-30.535	484.85	151.66	-125.69	577.75	60.734	-63.884	643.2	1393	39.059	545.52	1472.6	255.08	560.31	1506.4	-163.98	575.92	1268.4	296.06	567.97	1268.3	-203.72	545.43	1160.9	324.47	510.82	1177.4	-241.98	723.12	958.98	300.24	687.87	935.66	350.63	607.43	943.6	-210.42	562.42	937.65	-269.94	664.33	38.733	183.98	670.99	46.833	73.571	515.43	92.238	-136.65	541.34	90.325	-36.379	684.72	1637.6	131.6	692.87	1646.7	-7.1939	636.28	1808	73.688
134	2.217	616.76	1081.1	175.93	619.19	1074.1	-83.847	418.86	1072.7	51.511	589.99	755.19	214.54	651.5	698.2	118.73	585.98	633.21	201.1	654.3	777.57	-150.47	759.62	773.12	-99.088	698.31	676.13	-145.38	517.86	459.23	183.56	591.34	419.16	129.12	525.29	371.97	186.4	681.12	494.36	-146.39	694.89	423.88	-94.393	638.69	469.79	-150.04	421.7	71.183	93.22	566.07	78.889	61.47	556.5	63.293	168.48	709.43	48.421	105.02	406.91	231.07	-46.094	547.14	138.33	-30.403	525.41	140.69	-125.69	625.05	57.233	-63.891	641.5	1393.9	38.739	544.9	1473.9	254.84	558.81	1506.1	-163.64	576.19	1270	296.85	562.5	1268.6	-204.31	547.94	1162.5	326.02	503.45	1177.8	-242.54	731.64	965.81	299.36	697.04	941.25	349.49	603.16	944.3	-210.04	555.63	938.88	-268.72	644.59	38.978	183.89	651.9	46.675	73.493	560.61	84.023	-136.69	586.34	83.347	-36.397	683.87	1638.7	131.37	691.61	1647.4	-7.8817	633.73	1808.8	72.09
135	2.233	613.7	1080.2	177.33	617.06	1074.1	-82.76	416.72	1073.2	51.767	582.22	755.37	215.73	642.25	695.88	119.61	573.84	632.35	201.38	658.33	779.94	-149.65	761.48	777.56	-96.32	702.23	678.96	-143.02	502.11	459.05	183.6	575.81	419.78	128.71	507.88	372.62	186.51	691.04	493.91	-142.66	712.85	425.58	-93.629	652.77	466.32	-148.77	403.08	71.327	92.87	547.02	78.722	61.346	537.35	63.271	168.24	690.28	48.233	105.01	440.85	207.4	-45.44	588.77	127.68	-30.977	566.92	129.26	-126.14	673.68	54.445	-65.169	640.22	1393.2	38.872	544.7	1474.5	254.62	557.25	1505	-164.7	577.85	1271	296.96	556.97	1267.9	-204.97	550.06	1163.4	327.35	496.43	1177.8	-242.4	738.82	973.08	298.1	705.98	946.62	348.45	598.32	945.58	-209.93	549.96	937.79	-266.68	625.33	38.622	183.59	633.12	46.604	73.572	607.02	76.217	-137.59	632.86	76.582	-37.395	683.05	1639.8	130.55	689.73	1647.9	-9.5275	631.71	1809.1	70.957
136	2.25	611.8	1079.5	178.46	615.34	1073	-81.888	414.67	1073.3	51.912	574.06	755.03	215.07	632.74	694.33	120.77	561.87	631.59	201.33	660.5	781.25	-148.7	762.07	779.74	-92.766	705.77	680.35	-141.93	487.93	459.76	183.52	560.21	418.6	129.18	491.9	372.5	186.6	698.64	492.22	-139.48	727.69	425.21	-92.24	665.08	461.55	-147.11	384.2	71.597	92.506	527.74	78.42	61.267	518.27	63.186	168.02	671.11	48.119	104.94	477.16	182.97	-44.713	632.24	117.58	-32.181	609.17	118.06	-127.15	723.2	53.02	-67.734	639.26	1392.6	39.151	544.33	1474.5	254.45	555.44	1503.5	-165.12	578.35	1271.6	297.72	552.35	1266.4	-205.34	551.82	1163.7	328.46	490.81	1177.2	-242.2	745.84	978.68	296.41	714.01	951.86	346.87	594.34	945.77	-209.28	546.33	937.18	-267.04	606.54	37.876	183.36	614.59	46.567	73.765	654.23	69.49	-139.38	680.46	70.668	-39.445	681.98	1640	129.27	689.41	1647.9	-9.7378	629.17	1808.8	69.394
137	2.267	608.97	1078.2	178.96	613.93	1072.4	-81.49	412.72	1072.9	51.884	564.24	753.13	215.07	624.1	692.36	120.16	552.13	631.23	201.22	660.68	781.28	-147.5	761.49	780.81	-90.916	705.95	680.54	-140.38	472.97	459.57	183.04	545.13	417.79	129.21	476.68	372.43	186.65	707.11	489.95	-137.7	742.34	425	-91.221	675.5	455.52	-144.94	365.13	71.938	92.106	508.32	78.024	61.246	499.29	63.106	167.84	651.94	47.955	104.85	515.66	158.82	-43.799	676.93	108.9	-33.862	651.91	107.94	-128.59	772.98	53.651	-71.338	637.85	1390.8	38.329	543.59	1473.9	253.92	554.58	1501.8	-165.53	578.34	1271.3	298.27	548.52	1265.3	-205.49	553.21	1163.5	329.31	485.89	1176.4	-242.47	751.99	985.21	295.42	722.72	956.01	345.48	590.92	945.54	-208.92	542.52	936.53	-265.01	587.4	37.81	183.05	596.09	46.45	73.906	701.72	64.505	-141.93	728.66	66.405	-42.37	681.41	1640	128.6	688.5	1647.4	-11.445	626.73	1808	68.052
138	2.283	606.04	1076.1	179.29	612.33	1070.2	-80.83	410.89	1072.1	51.641	555.6	751.97	215.25	615.43	690.04	120.37	541.56	630.5	201.01	659	779.91	-146.05	759.11	780.01	-88.163	704.04	679.6	-138.64	459.37	459.55	183.49	530.56	416.75	129.25	462.11	372.94	186.27	711.69	486.03	-135.09	755.04	424.41	-90.483	684.24	448.42	-142.48	345.99	72.307	91.664	488.88	77.598	61.251	480.38	63.097	167.69	632.77	47.672	104.83	555.96	136.13	-42.707	722.05	102.43	-35.796	694.84	99.783	-130.18	822.21	56.989	-75.499	637.92	1389.4	37.851	540.42	1472.7	253.81	554.08	1499.1	-165.86	578.25	1270.8	298.33	545.34	1262.7	-206.05	554.24	1162.7	329.87	482.2	1174.6	-241.9	757.36	989.72	292.9	728.99	959.89	343.79	588.95	945.17	-208.97	539.99	935.04	-264.87	567.64	38.634	183.02	577.31	46.141	73.823	748.89	61.916	-144.87	776.82	64.686	-45.733	680.24	1638.9	126.91	687.45	1646.6	-12.209	625.37	1807.1	65.965
139	2.3	604.64	1074.5	179.47	610.67	1067.9	-80.374	409.27	1071	51.172	547.9	750.94	215.27	607.98	687.82	120.78	531.44	629.33	200.61	655.67	777.14	-144.4	755.21	777.62	-85.276	701.81	677.37	-136.9	445.22	459.94	183.24	517.35	416.35	127.92	446.95	372.67	185.78	717.36	481.4	-133.41	765.21	423.42	-89.139	691.68	440.62	-140.07	326.87	72.735	91.254	469.58	77.221	61.203	461.5	63.182	167.53	613.63	47.335	104.87	597.5	115.97	-41.639	766.57	98.844	-37.689	737.64	94.463	-131.62	869.91	63.586	-79.499	637.77	1387.6	37.662	540.9	1471.5	252.63	553.81	1496.2	-166.88	578.04	1269.5	297.57	543.09	1260.8	-206.78	554.92	1161.6	330.15	479.4	1172.7	-242.16	760.87	993.86	290.6	734.89	963.99	341.87	585.89	943.24	-208.24	536.13	933.22	-264.13	548.92	38.12	184.43	558.07	45.64	73.507	795.18	62.358	-147.63	824.12	66.382	-48.907	679.59	1638.1	125.43	686.59	1645.1	-14.318	623.5	1805.2	64.025
140	2.317	601.27	1071.7	179.6	613.33	1065.7	-81.539	407.96	1069.4	50.467	540.74	749.49	215.53	594.48	683.37	120.42	521.62	628.42	200.52	650.9	773.09	-142.61	751.2	772.83	-82.353	696.49	673.11	-135.07	431.85	459.93	182.81	502.39	415.13	128.33	432.13	372.29	185.99	720.89	476.11	-132.27	774.54	422.96	-86.958	698.29	432.59	-138.06	307.9	73.285	90.97	450.6	76.972	61.006	442.63	63.327	167.35	594.57	47.05	104.87	639.45	99.133	-40.95	809.37	98.62	-39.176	779.78	92.6	-132.75	915.07	73.844	-82.502	637.05	1384.3	36.323	540.39	1470.1	251.23	551.72	1494	-168.02	577.11	1268.3	296.93	541.6	1258	-206.52	555.29	1160.1	330.14	476.16	1170.4	-242.45	765.08	997.66	288.24	740.39	966.25	339.3	584.74	940.88	-207.78	534.63	930.11	-262.25	531.12	38.428	184.04	538.45	45.076	73.163	840.05	66.391	-149.69	869.53	72.127	-51.225	679	1636.5	123.92	685.51	1643.2	-16.065	621.71	1803.4	61.862
